<?xml version="1.0" encoding="UTF-8"?>
<!DOCTYPE svg PUBLIC "-//W3C//DTD SVG 1.1//EN" "http://www.w3.org/Graphics/SVG/1.1/DTD/svg11.dtd">
<svg xmlns="http://www.w3.org/2000/svg" version="1.1" width="1080px" height="1080px" style="shape-rendering:geometricPrecision; text-rendering:geometricPrecision; image-rendering:optimizeQuality; fill-rule:evenodd; clip-rule:evenodd" xmlns:xlink="http://www.w3.org/1999/xlink">
<g><path style="opacity:0.999" fill="#e78044" d="M 660.5,160.5 C 659.162,158.887 657.495,158.387 655.5,159C 663.033,169.928 668.033,181.928 670.5,195C 668.613,195.163 667.113,194.329 666,192.5C 665.833,193.5 665.667,194.5 665.5,195.5C 668.194,211.47 670.694,227.47 673,243.5C 673.118,324.634 667.118,405.301 655,485.5C 633.348,503.488 610.848,520.321 587.5,536C 578.173,540.892 568.173,543.226 557.5,543C 613.167,543.333 668.833,543.667 724.5,544C 736.986,547.83 743.486,556.33 744,569.5C 744.667,655.167 744.667,740.833 744,826.5C 742.964,840.867 735.464,849.7 721.5,853C 560.5,853.667 399.5,853.667 238.5,853C 226.667,850.5 219.5,843.333 217,831.5C 216.333,742.5 216.333,653.5 217,564.5C 218.951,553.881 225.118,547.048 235.5,544C 329.5,543.667 423.5,543.333 517.5,543C 507.379,542.443 497.712,540.11 488.5,536C 471.24,526.399 454.24,516.399 437.5,506C 432.871,503.095 428.704,499.595 425,495.5C 404.844,405.077 392.177,313.743 387,221.5C 385.649,223.019 384.149,224.352 382.5,225.5C 378.108,210.973 379.108,196.806 385.5,183C 383.497,183.419 381.497,184.253 379.5,185.5C 375.345,164.29 381.012,146.123 396.5,131C 399.502,128.497 402.835,126.497 406.5,125C 403.768,124.846 401.102,125.346 398.5,126.5C 397.73,122.605 398.563,118.938 401,115.5C 411.792,105.187 424.625,98.6869 439.5,96C 437.616,95.7837 435.949,95.117 434.5,94C 450.241,83.4159 467.574,76.7493 486.5,74C 494.138,73.0241 501.805,72.3574 509.5,72C 506.167,71.6667 502.833,71.3333 499.5,71C 500.623,69.9563 501.956,69.2896 503.5,69C 518.728,67.3713 533.394,69.538 547.5,75.5C 547.833,75.3333 548.167,75.1667 548.5,75C 547.5,74.1667 546.5,73.3333 545.5,72.5C 575.227,67.9472 597.727,78.6138 613,104.5C 613.813,106.436 614.313,108.436 614.5,110.5C 619.938,110.479 624.938,111.979 629.5,115C 646.39,125.719 656.723,140.886 660.5,160.5 Z M 603.5,166.5 C 606.218,169.724 609.218,172.891 612.5,176C 616.521,178.34 620.854,179.674 625.5,180C 631.018,187.869 635.351,196.369 638.5,205.5C 639.478,205.023 640.311,204.357 641,203.5C 645.367,211.853 649.701,220.186 654,228.5C 657.36,239.967 659.693,251.633 661,263.5C 661.667,279.833 661.667,296.167 661,312.5C 650.494,344.707 636.161,375.04 618,403.5C 603.148,394.157 587.648,385.99 571.5,379C 569.167,378.333 566.833,378.333 564.5,379C 556.736,380.923 548.902,382.423 541,383.5C 529.289,381.49 517.622,379.157 506,376.5C 502.407,376.94 498.907,377.773 495.5,379C 481.917,385.597 468.584,392.597 455.5,400C 454.5,400.667 453.5,400.667 452.5,400C 436.204,375.917 421.037,351.084 407,325.5C 404.738,305.224 404.072,284.891 405,264.5C 410.705,244.575 420.872,227.408 435.5,213C 438.833,211 442.167,209 445.5,207C 465.624,199.736 485.958,193.07 506.5,187C 525.65,183.349 544.984,181.682 564.5,182C 575.687,180.826 586.354,177.826 596.5,173C 599.331,171.334 601.664,169.168 603.5,166.5 Z M 531.5,396.5 C 544.868,396.752 558.202,397.586 571.5,399C 582.737,400.3 593.071,403.967 602.5,410C 607.691,415.69 608.858,422.19 606,429.5C 594.921,448.459 578.421,458.959 556.5,461C 555.299,460.097 554.465,458.931 554,457.5C 553.485,453.423 552.651,449.423 551.5,445.5C 545.962,443.382 540.296,443.049 534.5,444.5C 533.335,448.494 532.168,452.494 531,456.5C 528.565,461.224 524.731,462.724 519.5,461C 499.342,456.496 484.842,444.996 476,426.5C 472.714,418.254 474.547,411.421 481.5,406C 485.271,403.781 489.271,402.115 493.5,401C 506.2,398.508 518.867,397.008 531.5,396.5 Z M 497.5,653.5 C 498.5,653.5 499.5,653.5 500.5,653.5C 500.308,664.691 494.642,670.691 483.5,671.5C 484.111,662.235 488.778,656.235 497.5,653.5 Z M 463.5,672.5 C 467.514,672.334 471.514,672.501 475.5,673C 482.484,676.254 489.484,676.254 496.5,673C 504.694,671.103 511.861,672.936 518,678.5C 518.781,679.944 518.614,681.277 517.5,682.5C 508.748,690.447 507.581,699.447 514,709.5C 517.004,711.339 519.504,713.673 521.5,716.5C 518.043,727.155 511.209,734.488 501,738.5C 496.323,736.664 491.489,735.331 486.5,734.5C 481.281,735.054 476.281,736.388 471.5,738.5C 467.031,737.682 463.198,735.682 460,732.5C 452.059,722.775 447.559,711.609 446.5,699C 446.427,686.281 452.094,677.448 463.5,672.5 Z"/></g>
<g><path style="opacity:0.047" fill="#e9803f" d="M 660.5,160.5 C 661.833,161.167 661.833,161.167 660.5,160.5 Z"/></g>
<g><path style="opacity:0.992" fill="#e88044" d="M 827.5,653.5 C 839.838,653.333 852.171,653.5 864.5,654C 889.999,660.144 903.999,676.311 906.5,702.5C 897.167,702.5 887.833,702.5 878.5,702.5C 876.425,683.426 865.758,673.093 846.5,671.5C 827.461,673.204 816.461,683.537 813.5,702.5C 804.5,702.5 795.5,702.5 786.5,702.5C 788.951,676.721 802.617,660.388 827.5,653.5 Z"/></g>
<g><path style="opacity:0.974" fill="#e88044" d="M 777.5,655.5 C 783.989,655.156 785.989,657.99 783.5,664C 775.749,665.091 773.749,662.258 777.5,655.5 Z"/></g>
<g><path style="opacity:1" fill="#d97840" d="M 496.5,656.5 C 496.925,662.32 494.092,666.32 488,668.5C 487.5,668.167 487,667.833 486.5,667.5C 488.467,662.536 491.8,658.869 496.5,656.5 Z"/></g>
<g><path style="opacity:0.961" fill="#e88044" d="M 927.5,664.5 C 934.232,663.482 936.232,666.148 933.5,672.5C 925.79,674.123 923.79,671.457 927.5,664.5 Z"/></g>
<g><path style="opacity:0.994" fill="#e78044" d="M 839.5,675.5 C 859.959,673.383 871.959,682.383 875.5,702.5C 856.167,702.5 836.833,702.5 817.5,702.5C 819.005,688.669 826.338,679.669 839.5,675.5 Z"/></g>
<g><path style="opacity:0.964" fill="#e88044" d="M 755.5,690.5 C 761.989,690.156 763.989,692.99 761.5,699C 755.148,701.399 752.648,699.232 754,692.5C 754.717,691.956 755.217,691.289 755.5,690.5 Z"/></g>
<g><path style="opacity:0.998" fill="#e78044" d="M 776.5,706.5 C 823.168,706.333 869.835,706.5 916.5,707C 921.095,712.697 920.095,717.03 913.5,720C 868.833,720.667 824.167,720.667 779.5,720C 773.941,718.542 772.108,715.042 774,709.5C 775.045,708.627 775.878,707.627 776.5,706.5 Z"/></g>
<g><path style="opacity:0.999" fill="#e78044" d="M 786.5,723.5 C 826.506,723.167 866.506,723.5 906.5,724.5C 905.175,731.755 904.508,739.088 904.5,746.5C 865.833,746.5 827.167,746.5 788.5,746.5C 788.031,738.814 787.365,731.147 786.5,723.5 Z"/></g>
<g><path style="opacity:0.981" fill="#e88044" d="M 933.5,736.5 C 945.86,739.141 948.86,745.974 942.5,757C 927.328,762.334 921.494,757.167 925,741.5C 927.398,738.892 930.231,737.225 933.5,736.5 Z"/></g>
<g><path style="opacity:0.994" fill="#e88044" d="M 789.5,750.5 C 827.5,750.5 865.5,750.5 903.5,750.5C 901.227,775.506 898.893,800.506 896.5,825.5C 863.167,825.5 829.833,825.5 796.5,825.5C 794.5,806.167 792.5,786.833 790.5,767.5C 800.833,767.5 811.167,767.5 821.5,767.5C 821.5,766.5 821.5,765.5 821.5,764.5C 811.167,764.5 800.833,764.5 790.5,764.5C 789.873,759.859 789.54,755.193 789.5,750.5 Z M 830.5,762.5 C 836.317,762.03 837.984,764.196 835.5,769C 829.741,770.139 828.074,767.972 830.5,762.5 Z M 854.5,768.5 C 868.208,768.376 873.708,775.042 871,788.5C 865.506,803.662 854.84,812.662 839,815.5C 830.244,814.911 825.744,810.244 825.5,801.5C 828.432,784.569 838.099,773.569 854.5,768.5 Z"/></g>
<g><path style="opacity:0.982" fill="#e88044" d="M 852.5,772.5 C 855.85,772.335 859.183,772.502 862.5,773C 862.957,773.414 863.291,773.914 863.5,774.5C 857.348,781.152 851.015,787.652 844.5,794C 845.275,795.23 846.275,795.563 847.5,795C 853.681,788.652 860.014,782.485 866.5,776.5C 868.921,780.697 869.087,785.03 867,789.5C 862.414,799.754 854.914,806.92 844.5,811C 831.157,812.99 826.324,807.49 830,794.5C 834.77,784.228 842.27,776.895 852.5,772.5 Z"/></g>
<g><path style="opacity:0.993" fill="#e88044" d="M 764.5,774.5 C 770.989,774.156 772.989,776.99 770.5,783C 762.41,784.912 760.41,782.079 764.5,774.5 Z"/></g>
<g><path style="opacity:0.949" fill="#e88044" d="M 927.5,783.5 C 933.842,783.139 935.842,785.972 933.5,792C 925.749,793.091 923.749,790.258 927.5,783.5 Z"/></g>
<g><path style="opacity:0.99" fill="#e88044" d="M 749.5,795.5 C 763.64,795.972 771.307,803.305 772.5,817.5C 772.072,828.437 766.738,835.937 756.5,840C 754.19,840.497 751.857,840.663 749.5,840.5C 749.5,825.5 749.5,810.5 749.5,795.5 Z"/></g>
<g><path style="opacity:0.984" fill="#e88044" d="M 923.5,827.5 C 930.486,827.331 932.153,830.164 928.5,836C 924.237,837.539 921.57,836.206 920.5,832C 921.222,830.249 922.222,828.749 923.5,827.5 Z"/></g>
<g><path style="opacity:0.998" fill="#e88044" d="M 796.5,829.5 C 829.5,829.5 862.5,829.5 895.5,829.5C 896.151,836.196 894.985,842.529 892,848.5C 890.745,849.211 889.579,850.044 888.5,851C 874.399,852.141 860.232,852.641 846,852.5C 832.833,852.333 819.667,852.167 806.5,852C 803.063,850.895 800.563,848.728 799,845.5C 797.766,840.233 796.933,834.9 796.5,829.5 Z"/></g>
<g><path style="opacity:0.995" fill="#e78044" d="M 345.5,855.5 C 538.5,855.333 731.5,855.5 924.5,856C 947.174,856.167 969.841,856.667 992.5,857.5C 983.243,868.261 972.909,877.761 961.5,886C 940.768,896.349 918.768,901.683 895.5,902C 665.21,909.739 441.21,937.072 223.5,984C 306.069,989.122 388.736,991.622 471.5,991.5C 471.5,998.167 471.5,1004.83 471.5,1011.5C 342.569,1012.19 213.903,1006.69 85.5,995C 248.779,954.434 415.446,924.434 585.5,905C 460.833,904.667 336.167,904.333 211.5,904C 196.087,901.751 185.087,893.584 178.5,879.5C 149.841,878.5 121.174,878.167 92.5,878.5C 92.5,871.833 92.5,865.167 92.5,858.5C 177.001,857.845 261.335,856.845 345.5,855.5 Z M 783.5,875.5 C 831.835,875.745 880.169,876.245 928.5,877C 915.289,879.616 901.956,881.283 888.5,882C 854.129,883.127 819.796,884.961 785.5,887.5C 782.833,887.167 780.167,886.833 777.5,886.5C 779.766,882.966 781.766,879.3 783.5,875.5 Z"/></g>
<g><path style="opacity:0.012" fill="#000000" d="M 365.5,960.5 C 366.946,959.387 368.613,959.22 370.5,960C 368.866,960.494 367.199,960.66 365.5,960.5 Z"/></g>
<g><path style="opacity:0.031" fill="#000000" d="M 783.5,960.5 C 788.65,959.349 793.984,959.183 799.5,960C 794.177,960.499 788.844,960.666 783.5,960.5 Z"/></g>
</svg>
